<svg id="visual" viewBox="0 0 900 450" width="900" height="450" xmlns="http://www.w3.org/2000/svg" xmlns:xlink="http://www.w3.org/1999/xlink" version="1.1"><rect x="0" y="0" width="900" height="450" fill="#001220"></rect><defs><linearGradient id="grad1_0" x1="50%" y1="0%" x2="100%" y2="100%"><stop offset="10%" stop-color="#001220" stop-opacity="1"></stop><stop offset="90%" stop-color="#001220" stop-opacity="1"></stop></linearGradient></defs><defs><linearGradient id="grad2_0" x1="0%" y1="0%" x2="50%" y2="100%"><stop offset="10%" stop-color="#001220" stop-opacity="1"></stop><stop offset="90%" stop-color="#001220" stop-opacity="1"></stop></linearGradient></defs><g transform="translate(900, 0)"><path d="M0 270C-27.3 242.8 -54.7 215.7 -83.4 201.4C-112.2 187.1 -142.3 185.8 -172.5 172.5C-202.8 159.3 -233.2 134.1 -249.4 103.3C-265.7 72.6 -267.9 36.3 -270 0L0 0Z" fill="#5AB32F"></path></g><g transform="translate(0, 450)"><path d="M0 -270C35.6 -266.7 71.2 -263.5 103.3 -249.4C135.4 -235.4 164.1 -210.6 182.4 -182.4C200.8 -154.3 208.9 -122.8 221.7 -91.8C234.6 -60.9 252.3 -30.4 270 0L0 0Z" fill="#5AB32F"></path></g></svg>